<svg id="visual" viewBox="0 0 900 450" width="900" height="450" xmlns="http://www.w3.org/2000/svg" xmlns:xlink="http://www.w3.org/1999/xlink" version="1.1"><rect x="0" y="0" width="900" height="450" fill="#001220"></rect><path d="M0 158L21.5 152.7C43 147.3 86 136.7 128.8 141C171.7 145.3 214.3 164.7 257.2 164.7C300 164.7 343 145.3 385.8 143.7C428.7 142 471.3 158 514.2 167.7C557 177.3 600 180.7 642.8 174C685.7 167.3 728.3 150.7 771.2 148.8C814 147 857 160 878.5 166.5L900 173L900 0L878.5 0C857 0 814 0 771.2 0C728.3 0 685.7 0 642.8 0C600 0 557 0 514.2 0C471.3 0 428.7 0 385.8 0C343 0 300 0 257.2 0C214.3 0 171.7 0 128.8 0C86 0 43 0 21.5 0L0 0Z" fill="#69f1fa"></path><path d="M0 145L21.5 137.8C43 130.7 86 116.3 128.8 109.8C171.7 103.3 214.3 104.7 257.2 113.8C300 123 343 140 385.8 140.2C428.7 140.3 471.3 123.7 514.2 121.8C557 120 600 133 642.8 140.5C685.7 148 728.3 150 771.2 148.2C814 146.3 857 140.7 878.5 137.8L900 135L900 0L878.5 0C857 0 814 0 771.2 0C728.3 0 685.7 0 642.8 0C600 0 557 0 514.2 0C471.3 0 428.7 0 385.8 0C343 0 300 0 257.2 0C214.3 0 171.7 0 128.8 0C86 0 43 0 21.5 0L0 0Z" fill="#5ce3f0"></path><path d="M0 127L21.5 123.3C43 119.7 86 112.3 128.8 107.5C171.7 102.7 214.3 100.3 257.2 98.2C300 96 343 94 385.8 94.3C428.7 94.7 471.3 97.3 514.2 98C557 98.7 600 97.3 642.8 94.2C685.7 91 728.3 86 771.2 91.7C814 97.3 857 113.7 878.5 121.8L900 130L900 0L878.5 0C857 0 814 0 771.2 0C728.3 0 685.7 0 642.8 0C600 0 557 0 514.2 0C471.3 0 428.7 0 385.8 0C343 0 300 0 257.2 0C214.3 0 171.7 0 128.8 0C86 0 43 0 21.5 0L0 0Z" fill="#4fd6e6"></path><path d="M0 74L21.5 72C43 70 86 66 128.8 69.2C171.7 72.3 214.3 82.7 257.2 84.7C300 86.7 343 80.3 385.8 76.3C428.7 72.3 471.3 70.7 514.2 70.3C557 70 600 71 642.8 69C685.7 67 728.3 62 771.2 61.3C814 60.7 857 64.3 878.5 66.2L900 68L900 0L878.5 0C857 0 814 0 771.2 0C728.3 0 685.7 0 642.8 0C600 0 557 0 514.2 0C471.3 0 428.7 0 385.8 0C343 0 300 0 257.2 0C214.3 0 171.7 0 128.8 0C86 0 43 0 21.5 0L0 0Z" fill="#41c8dc"></path><path d="M0 62L21.5 59.3C43 56.7 86 51.3 128.8 49C171.7 46.7 214.3 47.3 257.2 48.3C300 49.3 343 50.7 385.8 53C428.7 55.3 471.3 58.7 514.2 58.3C557 58 600 54 642.8 51.8C685.7 49.7 728.3 49.3 771.2 49.7C814 50 857 51 878.5 51.5L900 52L900 0L878.5 0C857 0 814 0 771.2 0C728.3 0 685.7 0 642.8 0C600 0 557 0 514.2 0C471.3 0 428.7 0 385.8 0C343 0 300 0 257.2 0C214.3 0 171.7 0 128.8 0C86 0 43 0 21.5 0L0 0Z" fill="#33bbd1"></path><path d="M0 40L21.5 41C43 42 86 44 128.8 40.3C171.7 36.7 214.3 27.3 257.2 25.2C300 23 343 28 385.8 28.2C428.7 28.3 471.3 23.7 514.2 22C557 20.3 600 21.7 642.8 26.3C685.7 31 728.3 39 771.2 40.2C814 41.3 857 35.7 878.5 32.8L900 30L900 0L878.5 0C857 0 814 0 771.2 0C728.3 0 685.7 0 642.8 0C600 0 557 0 514.2 0C471.3 0 428.7 0 385.8 0C343 0 300 0 257.2 0C214.3 0 171.7 0 128.8 0C86 0 43 0 21.5 0L0 0Z" fill="#24aec7"></path></svg>