<svg id="visual" viewBox="0 0 900 600" width="900" height="600" xmlns="http://www.w3.org/2000/svg" xmlns:xlink="http://www.w3.org/1999/xlink" version="1.1"><rect x="0" y="0" width="900" height="600" fill="#001220"></rect><path d="M0 400L21.5 396.7C43 393.3 86 386.7 128.8 379.3C171.7 372 214.3 364 257.2 372C300 380 343 404 385.8 414.7C428.7 425.3 471.3 422.7 514.2 423.7C557 424.7 600 429.3 642.8 419.3C685.7 409.3 728.3 384.7 771.2 376.7C814 368.7 857 377.3 878.5 381.7L900 386L900 601L878.5 601C857 601 814 601 771.2 601C728.3 601 685.7 601 642.8 601C600 601 557 601 514.2 601C471.3 601 428.7 601 385.8 601C343 601 300 601 257.2 601C214.3 601 171.7 601 128.8 601C86 601 43 601 21.5 601L0 601Z" fill="#ffffff"></path><path d="M0 454L21.5 455.8C43 457.7 86 461.3 128.8 460C171.7 458.7 214.3 452.3 257.2 440.8C300 429.3 343 412.7 385.8 415.7C428.7 418.7 471.3 441.3 514.2 448.3C557 455.3 600 446.7 642.8 442.8C685.7 439 728.3 440 771.2 446C814 452 857 463 878.5 468.5L900 474L900 601L878.5 601C857 601 814 601 771.2 601C728.3 601 685.7 601 642.8 601C600 601 557 601 514.2 601C471.3 601 428.7 601 385.8 601C343 601 300 601 257.2 601C214.3 601 171.7 601 128.8 601C86 601 43 601 21.5 601L0 601Z" fill="#ffd3c3"></path><path d="M0 498L21.5 490.3C43 482.7 86 467.3 128.8 462.2C171.7 457 214.3 462 257.2 466C300 470 343 473 385.8 468.7C428.7 464.3 471.3 452.7 514.2 450.2C557 447.7 600 454.3 642.8 455C685.7 455.7 728.3 450.3 771.2 453.2C814 456 857 467 878.5 472.5L900 478L900 601L878.5 601C857 601 814 601 771.2 601C728.3 601 685.7 601 642.8 601C600 601 557 601 514.2 601C471.3 601 428.7 601 385.8 601C343 601 300 601 257.2 601C214.3 601 171.7 601 128.8 601C86 601 43 601 21.5 601L0 601Z" fill="#ffa689"></path><path d="M0 505L21.5 505.3C43 505.7 86 506.3 128.8 502.5C171.7 498.7 214.3 490.3 257.2 495.7C300 501 343 520 385.8 529.8C428.7 539.7 471.3 540.3 514.2 537.5C557 534.7 600 528.3 642.8 527.8C685.7 527.3 728.3 532.7 771.2 533.2C814 533.7 857 529.3 878.5 527.2L900 525L900 601L878.5 601C857 601 814 601 771.2 601C728.3 601 685.7 601 642.8 601C600 601 557 601 514.2 601C471.3 601 428.7 601 385.8 601C343 601 300 601 257.2 601C214.3 601 171.7 601 128.8 601C86 601 43 601 21.5 601L0 601Z" fill="#fd7851"></path><path d="M0 568L21.5 564.8C43 561.7 86 555.3 128.8 549.7C171.7 544 214.3 539 257.2 537.8C300 536.7 343 539.3 385.8 544.5C428.7 549.7 471.3 557.3 514.2 557.2C557 557 600 549 642.8 548.8C685.7 548.7 728.3 556.3 771.2 558.8C814 561.3 857 558.7 878.5 557.3L900 556L900 601L878.5 601C857 601 814 601 771.2 601C728.3 601 685.7 601 642.8 601C600 601 557 601 514.2 601C471.3 601 428.7 601 385.8 601C343 601 300 601 257.2 601C214.3 601 171.7 601 128.8 601C86 601 43 601 21.5 601L0 601Z" fill="#f53f16"></path></svg>