<svg id="visual" viewBox="0 0 960 540" width="960" height="540" xmlns="http://www.w3.org/2000/svg" xmlns:xlink="http://www.w3.org/1999/xlink" version="1.1"><rect x="0" y="0" width="960" height="540" fill="#001220"></rect><path d="M0 360L22.8 357C45.7 354 91.3 348 137 341.3C182.7 334.7 228.3 327.3 274 334.5C319.7 341.7 365.3 363.3 411.2 373C457 382.7 503 380.3 548.8 381.2C594.7 382 640.3 386 686 377C731.7 368 777.3 346 823 339C868.7 332 914.3 340 937.2 344L960 348L960 541L937.2 541C914.3 541 868.7 541 823 541C777.3 541 731.7 541 686 541C640.3 541 594.7 541 548.8 541C503 541 457 541 411.2 541C365.3 541 319.7 541 274 541C228.3 541 182.7 541 137 541C91.3 541 45.7 541 22.8 541L0 541Z" fill="#ffffff"></path><path d="M0 409L22.8 410.5C45.7 412 91.3 415 137 413.7C182.7 412.3 228.3 406.7 274 396.3C319.7 386 365.3 371 411.2 373.8C457 376.7 503 397.3 548.8 403.7C594.7 410 640.3 402 686 398.5C731.7 395 777.3 396 823 401.5C868.7 407 914.3 417 937.2 422L960 427L960 541L937.2 541C914.3 541 868.7 541 823 541C777.3 541 731.7 541 686 541C640.3 541 594.7 541 548.8 541C503 541 457 541 411.2 541C365.3 541 319.7 541 274 541C228.3 541 182.7 541 137 541C91.3 541 45.7 541 22.8 541L0 541Z" fill="#fdd1fe"></path><path d="M0 448L22.8 441C45.7 434 91.3 420 137 415.3C182.7 410.7 228.3 415.3 274 419C319.7 422.7 365.3 425.3 411.2 421.5C457 417.7 503 407.3 548.8 405.2C594.7 403 640.3 409 686 409.5C731.7 410 777.3 405 823 407.5C868.7 410 914.3 420 937.2 425L960 430L960 541L937.2 541C914.3 541 868.7 541 823 541C777.3 541 731.7 541 686 541C640.3 541 594.7 541 548.8 541C503 541 457 541 411.2 541C365.3 541 319.7 541 274 541C228.3 541 182.7 541 137 541C91.3 541 45.7 541 22.8 541L0 541Z" fill="#f7a2fc"></path><path d="M0 455L22.8 455.2C45.7 455.3 91.3 455.7 137 452.2C182.7 448.7 228.3 441.3 274 446.2C319.7 451 365.3 468 411.2 476.7C457 485.3 503 485.7 548.8 483C594.7 480.3 640.3 474.7 686 474.3C731.7 474 777.3 479 823 479.5C868.7 480 914.3 476 937.2 474L960 472L960 541L937.2 541C914.3 541 868.7 541 823 541C777.3 541 731.7 541 686 541C640.3 541 594.7 541 548.8 541C503 541 457 541 411.2 541C365.3 541 319.7 541 274 541C228.3 541 182.7 541 137 541C91.3 541 45.7 541 22.8 541L0 541Z" fill="#ee6df9"></path><path d="M0 512L22.8 509C45.7 506 91.3 500 137 494.7C182.7 489.3 228.3 484.7 274 483.5C319.7 482.3 365.3 484.7 411.2 489.3C457 494 503 501 548.8 501C594.7 501 640.3 494 686 494C731.7 494 777.3 501 823 503.3C868.7 505.7 914.3 503.3 937.2 502.2L960 501L960 541L937.2 541C914.3 541 868.7 541 823 541C777.3 541 731.7 541 686 541C640.3 541 594.7 541 548.8 541C503 541 457 541 411.2 541C365.3 541 319.7 541 274 541C228.3 541 182.7 541 137 541C91.3 541 45.7 541 22.8 541L0 541Z" fill="#e116f5"></path></svg>